<svg aria-hidden="true" style="position: absolute; width: 0; height: 0; overflow: hidden;" version="1.1" xmlns="http://www.w3.org/2000/svg" xmlns:xlink="http://www.w3.org/1999/xlink">
<defs>
<symbol id="icon-plus" viewBox="0 0 22 28">
<path d="M22 11.5v3c0 0.828-0.672 1.5-1.5 1.5h-6.5v6.5c0 0.828-0.672 1.5-1.5 1.5h-3c-0.828 0-1.5-0.672-1.5-1.5v-6.5h-6.5c-0.828 0-1.5-0.672-1.5-1.5v-3c0-0.828 0.672-1.5 1.5-1.5h6.5v-6.5c0-0.828 0.672-1.5 1.5-1.5h3c0.828 0 1.5 0.672 1.5 1.5v6.5h6.5c0.828 0 1.5 0.672 1.5 1.5z"></path>
</symbol>
<symbol id="icon-minus" viewBox="0 0 22 28">
<path d="M22 11.5v3c0 0.828-0.672 1.5-1.5 1.5h-19c-0.828 0-1.5-0.672-1.5-1.5v-3c0-0.828 0.672-1.5 1.5-1.5h19c0.828 0 1.5 0.672 1.5 1.5z"></path>
</symbol>
<symbol id="icon-search" viewBox="0 0 26 28">
<path d="M18 13c0-3.859-3.141-7-7-7s-7 3.141-7 7 3.141 7 7 7 7-3.141 7-7zM26 26c0 1.094-0.906 2-2 2-0.531 0-1.047-0.219-1.406-0.594l-5.359-5.344c-1.828 1.266-4.016 1.937-6.234 1.937-6.078 0-11-4.922-11-11s4.922-11 11-11 11 4.922 11 11c0 2.219-0.672 4.406-1.937 6.234l5.359 5.359c0.359 0.359 0.578 0.875 0.578 1.406z"></path>
</symbol>
<symbol id="icon-inbox" viewBox="0 0 24 28">
<path d="M15.984 15h4.937c-0.031-0.078-0.047-0.172-0.078-0.25l-3.313-7.75h-11.062l-3.313 7.75c-0.031 0.078-0.047 0.172-0.078 0.25h4.937l1.484 3h5zM24 15.469v7.531c0 0.547-0.453 1-1 1h-22c-0.547 0-1-0.453-1-1v-7.531c0-0.562 0.172-1.391 0.391-1.922l3.719-8.625c0.219-0.516 0.844-0.922 1.391-0.922h13c0.547 0 1.172 0.406 1.391 0.922l3.719 8.625c0.219 0.531 0.391 1.359 0.391 1.922z"></path>
</symbol>
<symbol id="icon-print" viewBox="0 0 26 28">
<path d="M6 24h14v-4h-14v4zM6 14h14v-6h-2.5c-0.828 0-1.5-0.672-1.5-1.5v-2.5h-10v10zM24 15c0-0.547-0.453-1-1-1s-1 0.453-1 1 0.453 1 1 1 1-0.453 1-1zM26 15v6.5c0 0.266-0.234 0.5-0.5 0.5h-3.5v2.5c0 0.828-0.672 1.5-1.5 1.5h-15c-0.828 0-1.5-0.672-1.5-1.5v-2.5h-3.5c-0.266 0-0.5-0.234-0.5-0.5v-6.5c0-1.641 1.359-3 3-3h1v-8.5c0-0.828 0.672-1.5 1.5-1.5h10.5c0.828 0 1.969 0.469 2.562 1.062l2.375 2.375c0.594 0.594 1.062 1.734 1.062 2.562v4h1c1.641 0 3 1.359 3 3z"></path>
</symbol>
<symbol id="icon-pencil" viewBox="0 0 24 28">
<path d="M5.672 24l1.422-1.422-3.672-3.672-1.422 1.422v1.672h2v2h1.672zM13.844 9.5c0-0.203-0.141-0.344-0.344-0.344-0.094 0-0.187 0.031-0.266 0.109l-8.469 8.469c-0.078 0.078-0.109 0.172-0.109 0.266 0 0.203 0.141 0.344 0.344 0.344 0.094 0 0.187-0.031 0.266-0.109l8.469-8.469c0.078-0.078 0.109-0.172 0.109-0.266zM13 6.5l6.5 6.5-13 13h-6.5v-6.5zM23.672 8c0 0.531-0.219 1.047-0.578 1.406l-2.594 2.594-6.5-6.5 2.594-2.578c0.359-0.375 0.875-0.594 1.406-0.594s1.047 0.219 1.422 0.594l3.672 3.656c0.359 0.375 0.578 0.891 0.578 1.422z"></path>
</symbol>
<symbol id="icon-edit" viewBox="0 0 28 28">
<path d="M13.875 18.5l1.813-1.813-2.375-2.375-1.813 1.813v0.875h1.5v1.5h0.875zM20.75 7.25c-0.141-0.141-0.375-0.125-0.516 0.016l-5.469 5.469c-0.141 0.141-0.156 0.375-0.016 0.516s0.375 0.125 0.516-0.016l5.469-5.469c0.141-0.141 0.156-0.375 0.016-0.516zM22 16.531v2.969c0 2.484-2.016 4.5-4.5 4.5h-13c-2.484 0-4.5-2.016-4.5-4.5v-13c0-2.484 2.016-4.5 4.5-4.5h13c0.625 0 1.25 0.125 1.828 0.391 0.141 0.063 0.25 0.203 0.281 0.359 0.031 0.172-0.016 0.328-0.141 0.453l-0.766 0.766c-0.141 0.141-0.328 0.187-0.5 0.125-0.234-0.063-0.469-0.094-0.703-0.094h-13c-1.375 0-2.5 1.125-2.5 2.5v13c0 1.375 1.125 2.5 2.5 2.5h13c1.375 0 2.5-1.125 2.5-2.5v-1.969c0-0.125 0.047-0.25 0.141-0.344l1-1c0.156-0.156 0.359-0.187 0.547-0.109s0.313 0.25 0.313 0.453zM20.5 5l4.5 4.5-10.5 10.5h-4.5v-4.5zM27.438 7.063l-1.437 1.437-4.5-4.5 1.437-1.437c0.578-0.578 1.547-0.578 2.125 0l2.375 2.375c0.578 0.578 0.578 1.547 0 2.125z"></path>
</symbol>
<symbol id="icon-calendar" viewBox="0 0 26 28">
<path d="M2 26h4.5v-4.5h-4.5v4.5zM7.5 26h5v-4.5h-5v4.5zM2 20.5h4.5v-5h-4.5v5zM7.5 20.5h5v-5h-5v5zM2 14.5h4.5v-4.5h-4.5v4.5zM13.5 26h5v-4.5h-5v4.5zM7.5 14.5h5v-4.5h-5v4.5zM19.5 26h4.5v-4.5h-4.5v4.5zM13.5 20.5h5v-5h-5v5zM8 7v-4.5c0-0.266-0.234-0.5-0.5-0.5h-1c-0.266 0-0.5 0.234-0.5 0.5v4.5c0 0.266 0.234 0.5 0.5 0.5h1c0.266 0 0.5-0.234 0.5-0.5zM19.5 20.5h4.5v-5h-4.5v5zM13.5 14.5h5v-4.5h-5v4.5zM19.5 14.5h4.5v-4.5h-4.5v4.5zM20 7v-4.5c0-0.266-0.234-0.5-0.5-0.5h-1c-0.266 0-0.5 0.234-0.5 0.5v4.5c0 0.266 0.234 0.5 0.5 0.5h1c0.266 0 0.5-0.234 0.5-0.5zM26 6v20c0 1.094-0.906 2-2 2h-22c-1.094 0-2-0.906-2-2v-20c0-1.094 0.906-2 2-2h2v-1.5c0-1.375 1.125-2.5 2.5-2.5h1c1.375 0 2.5 1.125 2.5 2.5v1.5h6v-1.5c0-1.375 1.125-2.5 2.5-2.5h1c1.375 0 2.5 1.125 2.5 2.5v1.5h2c1.094 0 2 0.906 2 2z"></path>
</symbol>
<symbol id="icon-chevron-up" viewBox="0 0 28 28">
<path d="M26.297 20.797l-2.594 2.578c-0.391 0.391-1.016 0.391-1.406 0l-8.297-8.297-8.297 8.297c-0.391 0.391-1.016 0.391-1.406 0l-2.594-2.578c-0.391-0.391-0.391-1.031 0-1.422l11.594-11.578c0.391-0.391 1.016-0.391 1.406 0l11.594 11.578c0.391 0.391 0.391 1.031 0 1.422z"></path>
</symbol>
<symbol id="icon-chevron-down" viewBox="0 0 28 28">
<path d="M26.297 12.625l-11.594 11.578c-0.391 0.391-1.016 0.391-1.406 0l-11.594-11.578c-0.391-0.391-0.391-1.031 0-1.422l2.594-2.578c0.391-0.391 1.016-0.391 1.406 0l8.297 8.297 8.297-8.297c0.391-0.391 1.016-0.391 1.406 0l2.594 2.578c0.391 0.391 0.391 1.031 0 1.422z"></path>
</symbol>
<symbol id="icon-shopping-cart" viewBox="0 0 26 28">
<path d="M10 24c0 1.094-0.906 2-2 2s-2-0.906-2-2 0.906-2 2-2 2 0.906 2 2zM24 24c0 1.094-0.906 2-2 2s-2-0.906-2-2 0.906-2 2-2 2 0.906 2 2zM26 7v8c0 0.5-0.391 0.938-0.891 1l-16.312 1.906c0.078 0.359 0.203 0.719 0.203 1.094 0 0.359-0.219 0.688-0.375 1h14.375c0.547 0 1 0.453 1 1s-0.453 1-1 1h-16c-0.547 0-1-0.453-1-1 0-0.484 0.703-1.656 0.953-2.141l-2.766-12.859h-3.187c-0.547 0-1-0.453-1-1s0.453-1 1-1h4c1.047 0 1.078 1.25 1.234 2h18.766c0.547 0 1 0.453 1 1z"></path>
</symbol>
<symbol id="icon-key" viewBox="0 0 26 28">
<path d="M13 8c0-1.656-1.344-3-3-3s-3 1.344-3 3c0 0.453 0.109 0.891 0.297 1.297-0.406-0.187-0.844-0.297-1.297-0.297-1.656 0-3 1.344-3 3s1.344 3 3 3 3-1.344 3-3c0-0.453-0.109-0.891-0.297-1.297 0.406 0.187 0.844 0.297 1.297 0.297 1.656 0 3-1.344 3-3zM26.297 19c0 0.359-1.437 1.797-1.797 1.797-0.406 0-1.672-1.469-2-1.797l-1.5 1.5 3.437 3.437c0.281 0.281 0.438 0.672 0.438 1.062 0 0.875-1 1.875-1.875 1.875-0.391 0-0.781-0.156-1.062-0.438l-10.484-10.484c-1.641 1.219-3.641 2.047-5.703 2.047-3.406 0-5.75-2.359-5.75-5.75 0-5.125 5.125-10.25 10.25-10.25 3.391 0 5.75 2.344 5.75 5.75 0 2.063-0.828 4.062-2.047 5.703l5.547 5.547 1.5-1.5c-0.328-0.328-1.797-1.594-1.797-2 0-0.359 1.437-1.797 1.797-1.797 0.125 0 0.266 0.063 0.359 0.156 0.578 0.578 4.937 4.688 4.937 5.141z"></path>
</symbol>
<symbol id="icon-sign-out" viewBox="0 0 25 28">
<path d="M10 22.5c0 0.438 0.203 1.5-0.5 1.5h-5c-2.484 0-4.5-2.016-4.5-4.5v-11c0-2.484 2.016-4.5 4.5-4.5h5c0.266 0 0.5 0.234 0.5 0.5 0 0.438 0.203 1.5-0.5 1.5h-5c-1.375 0-2.5 1.125-2.5 2.5v11c0 1.375 1.125 2.5 2.5 2.5h4.5c0.391 0 1-0.078 1 0.5zM24.5 14c0 0.266-0.109 0.516-0.297 0.703l-8.5 8.5c-0.187 0.187-0.438 0.297-0.703 0.297-0.547 0-1-0.453-1-1v-4.5h-7c-0.547 0-1-0.453-1-1v-6c0-0.547 0.453-1 1-1h7v-4.5c0-0.547 0.453-1 1-1 0.266 0 0.516 0.109 0.703 0.297l8.5 8.5c0.187 0.187 0.297 0.438 0.297 0.703z"></path>
</symbol>
<symbol id="icon-envelope" viewBox="0 0 28 28">
<path d="M28 11.094v12.406c0 1.375-1.125 2.5-2.5 2.5h-23c-1.375 0-2.5-1.125-2.5-2.5v-12.406c0.469 0.516 1 0.969 1.578 1.359 2.594 1.766 5.219 3.531 7.766 5.391 1.313 0.969 2.938 2.156 4.641 2.156h0.031c1.703 0 3.328-1.188 4.641-2.156 2.547-1.844 5.172-3.625 7.781-5.391 0.562-0.391 1.094-0.844 1.563-1.359zM28 6.5c0 1.75-1.297 3.328-2.672 4.281-2.438 1.687-4.891 3.375-7.313 5.078-1.016 0.703-2.734 2.141-4 2.141h-0.031c-1.266 0-2.984-1.437-4-2.141-2.422-1.703-4.875-3.391-7.297-5.078-1.109-0.75-2.688-2.516-2.688-3.938 0-1.531 0.828-2.844 2.5-2.844h23c1.359 0 2.5 1.125 2.5 2.5z"></path>
</symbol>
<symbol id="icon-file-text-o" viewBox="0 0 24 28">
<path d="M22.937 5.938c0.578 0.578 1.062 1.734 1.062 2.562v18c0 0.828-0.672 1.5-1.5 1.5h-21c-0.828 0-1.5-0.672-1.5-1.5v-25c0-0.828 0.672-1.5 1.5-1.5h14c0.828 0 1.984 0.484 2.562 1.062zM16 2.125v5.875h5.875c-0.094-0.266-0.234-0.531-0.344-0.641l-4.891-4.891c-0.109-0.109-0.375-0.25-0.641-0.344zM22 26v-16h-6.5c-0.828 0-1.5-0.672-1.5-1.5v-6.5h-12v24h20zM6 12.5c0-0.281 0.219-0.5 0.5-0.5h11c0.281 0 0.5 0.219 0.5 0.5v1c0 0.281-0.219 0.5-0.5 0.5h-11c-0.281 0-0.5-0.219-0.5-0.5v-1zM17.5 16c0.281 0 0.5 0.219 0.5 0.5v1c0 0.281-0.219 0.5-0.5 0.5h-11c-0.281 0-0.5-0.219-0.5-0.5v-1c0-0.281 0.219-0.5 0.5-0.5h11zM17.5 20c0.281 0 0.5 0.219 0.5 0.5v1c0 0.281-0.219 0.5-0.5 0.5h-11c-0.281 0-0.5-0.219-0.5-0.5v-1c0-0.281 0.219-0.5 0.5-0.5h11z"></path>
</symbol>
<symbol id="icon-check-square" viewBox="0 0 24 28">
<path d="M10.703 20.297l9.594-9.594c0.391-0.391 0.391-1.016 0-1.406l-1.594-1.594c-0.391-0.391-1.016-0.391-1.406 0l-7.297 7.297-3.297-3.297c-0.391-0.391-1.016-0.391-1.406 0l-1.594 1.594c-0.391 0.391-0.391 1.016 0 1.406l5.594 5.594c0.391 0.391 1.016 0.391 1.406 0zM24 6.5v15c0 2.484-2.016 4.5-4.5 4.5h-15c-2.484 0-4.5-2.016-4.5-4.5v-15c0-2.484 2.016-4.5 4.5-4.5h15c2.484 0 4.5 2.016 4.5 4.5z"></path>
</symbol>
<symbol id="icon-dropbox" viewBox="0 0 28 28">
<path d="M6.281 11.047l7.719 4.766-5.344 4.453-7.656-4.984zM21.688 19.719v1.687l-7.656 4.578v0.016l-0.016-0.016-0.016 0.016v-0.016l-7.641-4.578v-1.687l2.297 1.5 5.344-4.438v-0.031l0.016 0.016 0.016-0.016v0.031l5.359 4.438zM8.656 1.844l5.344 4.453-7.719 4.75-5.281-4.219zM21.719 11.047l5.281 4.234-7.641 4.984-5.359-4.453zM19.359 1.844l7.641 4.984-5.281 4.219-7.719-4.75z"></path>
</symbol>
<symbol id="icon-archive" viewBox="0 0 28 28">
<path d="M17 13c0-0.547-0.453-1-1-1h-4c-0.547 0-1 0.453-1 1s0.453 1 1 1h4c0.547 0 1-0.453 1-1zM26 10v15c0 0.547-0.453 1-1 1h-22c-0.547 0-1-0.453-1-1v-15c0-0.547 0.453-1 1-1h22c0.547 0 1 0.453 1 1zM27 3v4c0 0.547-0.453 1-1 1h-24c-0.547 0-1-0.453-1-1v-4c0-0.547 0.453-1 1-1h24c0.547 0 1 0.453 1 1z"></path>
</symbol>
<symbol id="icon-calculator" viewBox="0 0 26 28">
<path d="M6 24c0-1.109-0.891-2-2-2s-2 0.891-2 2 0.891 2 2 2 2-0.891 2-2zM12 24c0-1.109-0.891-2-2-2s-2 0.891-2 2 0.891 2 2 2 2-0.891 2-2zM6 18c0-1.109-0.891-2-2-2s-2 0.891-2 2 0.891 2 2 2 2-0.891 2-2zM18 24c0-1.109-0.891-2-2-2s-2 0.891-2 2 0.891 2 2 2 2-0.891 2-2zM12 18c0-1.109-0.891-2-2-2s-2 0.891-2 2 0.891 2 2 2 2-0.891 2-2zM6 12c0-1.109-0.891-2-2-2s-2 0.891-2 2 0.891 2 2 2 2-0.891 2-2zM18 18c0-1.109-0.891-2-2-2s-2 0.891-2 2 0.891 2 2 2 2-0.891 2-2zM12 12c0-1.109-0.891-2-2-2s-2 0.891-2 2 0.891 2 2 2 2-0.891 2-2zM24 24v-6c0-1.094-0.906-2-2-2v0c-1.094 0-2 0.906-2 2v6c0 1.094 0.906 2 2 2v0c1.094 0 2-0.906 2-2zM18 12c0-1.109-0.891-2-2-2s-2 0.891-2 2 0.891 2 2 2 2-0.891 2-2zM24 7v-4c0-0.547-0.453-1-1-1h-20c-0.547 0-1 0.453-1 1v4c0 0.547 0.453 1 1 1h20c0.547 0 1-0.453 1-1zM24 12c0-1.109-0.891-2-2-2s-2 0.891-2 2 0.891 2 2 2 2-0.891 2-2zM26 2v24c0 1.094-0.906 2-2 2h-22c-1.094 0-2-0.906-2-2v-24c0-1.094 0.906-2 2-2h22c1.094 0 2 0.906 2 2z"></path>
</symbol>
<symbol id="icon-trash" viewBox="0 0 22 28">
<path d="M8 21.5v-11c0-0.281-0.219-0.5-0.5-0.5h-1c-0.281 0-0.5 0.219-0.5 0.5v11c0 0.281 0.219 0.5 0.5 0.5h1c0.281 0 0.5-0.219 0.5-0.5zM12 21.5v-11c0-0.281-0.219-0.5-0.5-0.5h-1c-0.281 0-0.5 0.219-0.5 0.5v11c0 0.281 0.219 0.5 0.5 0.5h1c0.281 0 0.5-0.219 0.5-0.5zM16 21.5v-11c0-0.281-0.219-0.5-0.5-0.5h-1c-0.281 0-0.5 0.219-0.5 0.5v11c0 0.281 0.219 0.5 0.5 0.5h1c0.281 0 0.5-0.219 0.5-0.5zM7.5 6h7l-0.75-1.828c-0.047-0.063-0.187-0.156-0.266-0.172h-4.953c-0.094 0.016-0.219 0.109-0.266 0.172zM22 6.5v1c0 0.281-0.219 0.5-0.5 0.5h-1.5v14.812c0 1.719-1.125 3.187-2.5 3.187h-13c-1.375 0-2.5-1.406-2.5-3.125v-14.875h-1.5c-0.281 0-0.5-0.219-0.5-0.5v-1c0-0.281 0.219-0.5 0.5-0.5h4.828l1.094-2.609c0.313-0.766 1.25-1.391 2.078-1.391h5c0.828 0 1.766 0.625 2.078 1.391l1.094 2.609h4.828c0.281 0 0.5 0.219 0.5 0.5z"></path>
</symbol>
<symbol id="icon-cart-plus" viewBox="0 0 26 28">
<path d="M19 11c0-0.547-0.453-1-1-1h-2v-2c0-0.547-0.453-1-1-1s-1 0.453-1 1v2h-2c-0.547 0-1 0.453-1 1s0.453 1 1 1h2v2c0 0.547 0.453 1 1 1s1-0.453 1-1v-2h2c0.547 0 1-0.453 1-1zM10 24c0 1.109-0.891 2-2 2s-2-0.891-2-2 0.891-2 2-2 2 0.891 2 2zM24 24c0 1.109-0.891 2-2 2s-2-0.891-2-2 0.891-2 2-2 2 0.891 2 2zM26 7v8c0 0.5-0.375 0.938-0.891 1l-16.312 1.906c0.063 0.344 0.203 0.734 0.203 1.094s-0.219 0.688-0.375 1h14.375c0.547 0 1 0.453 1 1s-0.453 1-1 1h-16c-0.547 0-1-0.453-1-1 0-0.484 0.734-1.687 0.953-2.141l-2.766-12.859h-3.187c-0.547 0-1-0.453-1-1s0.453-1 1-1h4c1.062 0 1.078 1.25 1.234 2h18.766c0.547 0 1 0.453 1 1z"></path>
</symbol>
<symbol id="icon-user-circle-o" viewBox="0 0 28 28">
<path d="M14 0c7.734 0 14 6.266 14 14 0 7.688-6.234 14-14 14-7.75 0-14-6.297-14-14 0-7.734 6.266-14 14-14zM23.672 21.109c1.453-2 2.328-4.453 2.328-7.109 0-6.609-5.391-12-12-12s-12 5.391-12 12c0 2.656 0.875 5.109 2.328 7.109 0.562-2.797 1.922-5.109 4.781-5.109 1.266 1.234 2.984 2 4.891 2s3.625-0.766 4.891-2c2.859 0 4.219 2.312 4.781 5.109zM20 11c0-3.313-2.688-6-6-6s-6 2.688-6 6 2.688 6 6 6 6-2.688 6-6z"></path>
</symbol>
<symbol id="icon-times-rectangle" viewBox="0 0 28 28">
<path d="M18.359 20.641l2.281-2.281c0.203-0.203 0.203-0.516 0-0.719l-3.641-3.641 3.641-3.641c0.203-0.203 0.203-0.516 0-0.719l-2.281-2.281c-0.203-0.203-0.516-0.203-0.719 0l-3.641 3.641-3.641-3.641c-0.203-0.203-0.516-0.203-0.719 0l-2.281 2.281c-0.203 0.203-0.203 0.516 0 0.719l3.641 3.641-3.641 3.641c-0.203 0.203-0.203 0.516 0 0.719l2.281 2.281c0.203 0.203 0.516 0.203 0.719 0l3.641-3.641 3.641 3.641c0.203 0.203 0.516 0.203 0.719 0zM28 4.5v19c0 1.375-1.125 2.5-2.5 2.5h-23c-1.375 0-2.5-1.125-2.5-2.5v-19c0-1.375 1.125-2.5 2.5-2.5h23c1.375 0 2.5 1.125 2.5 2.5z"></path>
</symbol>
</defs>
</svg>
